<?xml version="1.0" encoding="UTF-8" standalone="no"?>
<!DOCTYPE svg PUBLIC "-//W3C//DTD SVG 1.1//EN" "http://www.w3.org/Graphics/SVG/1.1/DTD/svg11.dtd">
<svg width="100%" height="100%" viewBox="0 0 80 40" version="1.1" xmlns="http://www.w3.org/2000/svg" xmlns:xlink="http://www.w3.org/1999/xlink" xml:space="preserve" xmlns:serif="http://www.serif.com/" style="fill-rule:evenodd;clip-rule:evenodd;stroke-linejoin:round;stroke-miterlimit:2;">
    <g>
        <rect x="0" y="0" width="80" height="40" style="fill:rgb(250,0,0);"/>
        <path d="M64.722,22.065L66.018,21.765C66.061,21.756 66.103,21.744 66.145,21.731C66.884,21.532 67.339,20.774 67.167,20.028L67.161,20.005C67.118,19.832 67.044,19.669 66.941,19.523C66.796,19.339 66.616,19.185 66.412,19.07C66.172,18.933 65.92,18.816 65.66,18.722L64.24,18.204C63.443,17.908 62.645,17.619 61.84,17.337C61.319,17.152 60.877,16.989 60.492,16.871C60.42,16.848 60.34,16.826 60.275,16.804C59.81,16.661 59.485,16.602 59.208,16.601C59.024,16.594 58.84,16.628 58.67,16.699C58.492,16.775 58.333,16.889 58.202,17.031C58.137,17.105 58.076,17.183 58.019,17.263C57.908,17.433 57.817,17.615 57.746,17.806C57.483,18.585 57.351,19.403 57.358,20.226C57.364,20.97 57.384,21.924 57.793,22.571C57.891,22.737 58.023,22.881 58.181,22.992C58.472,23.193 58.766,23.22 59.073,23.242C59.53,23.274 59.973,23.162 60.415,23.06L64.719,22.064L64.722,22.065ZM79.173,15.183C78.819,14.441 78.344,13.763 77.766,13.178C77.691,13.104 77.611,13.035 77.526,12.973C77.448,12.914 77.367,12.859 77.283,12.809C77.196,12.762 77.107,12.72 77.016,12.682C76.836,12.611 76.644,12.579 76.451,12.588C76.267,12.599 76.087,12.65 75.924,12.737C75.677,12.86 75.41,13.057 75.054,13.387C75.005,13.437 74.944,13.492 74.888,13.543C74.595,13.819 74.268,14.16 73.88,14.556C73.28,15.162 72.69,15.772 72.103,16.388L71.053,17.478C70.861,17.678 70.686,17.892 70.53,18.121C70.397,18.314 70.303,18.531 70.253,18.761C70.223,18.937 70.228,19.117 70.265,19.291L70.271,19.314C70.443,20.059 71.184,20.54 71.934,20.395C71.991,20.387 72.036,20.377 72.064,20.371L77.664,19.075C78.106,18.973 78.554,18.879 78.95,18.649C79.216,18.494 79.469,18.341 79.642,18.033C79.735,17.863 79.791,17.676 79.807,17.483C79.893,16.72 79.494,15.853 79.173,15.183ZM69.149,17.541C69.555,17.031 69.553,16.271 69.589,15.649C69.711,13.573 69.839,11.497 69.94,9.419C69.98,8.633 70.064,7.857 70.016,7.064C69.978,6.41 69.973,5.659 69.56,5.122C68.83,4.176 67.276,4.254 66.216,4.402C65.891,4.447 65.566,4.507 65.243,4.585C64.92,4.663 64.601,4.747 64.288,4.848C63.271,5.181 61.84,5.793 61.598,6.966C61.462,7.629 61.786,8.306 62.037,8.912C62.341,9.645 62.757,10.305 63.137,10.995C64.138,12.818 65.159,14.628 66.177,16.441C66.481,16.981 66.812,17.667 67.4,17.947C67.439,17.964 67.478,17.979 67.519,17.992C67.782,18.092 68.069,18.112 68.344,18.047L68.394,18.036C68.647,17.966 68.876,17.829 69.056,17.637C69.089,17.607 69.12,17.575 69.149,17.541ZM68.665,23.1C68.341,22.644 67.756,22.447 67.222,22.614C67.16,22.634 67.101,22.659 67.042,22.688C66.953,22.734 66.868,22.788 66.788,22.848C66.555,23.02 66.358,23.245 66.18,23.47C66.134,23.528 66.093,23.604 66.039,23.654L65.139,24.894C64.628,25.588 64.124,26.284 63.625,26.991C63.299,27.448 63.018,27.833 62.795,28.174C62.753,28.239 62.709,28.311 62.669,28.368C62.402,28.781 62.251,29.082 62.174,29.35C62.116,29.528 62.097,29.718 62.12,29.904C62.145,30.098 62.21,30.284 62.312,30.451C62.366,30.535 62.424,30.616 62.486,30.694C62.621,30.849 62.773,30.989 62.939,31.11C63.561,31.543 64.242,31.854 64.959,32.094C65.555,32.291 66.174,32.409 66.801,32.445C66.907,32.45 67.014,32.448 67.121,32.438C67.219,32.429 67.317,32.416 67.414,32.397C67.511,32.374 67.607,32.346 67.701,32.313C68.066,32.184 68.355,31.898 68.488,31.534C68.592,31.274 68.66,30.944 68.705,30.456C68.709,30.386 68.719,30.302 68.726,30.226C68.761,29.82 68.778,29.343 68.804,28.782C68.847,27.92 68.882,27.062 68.909,26.2L68.966,24.67C68.979,24.316 68.968,23.926 68.87,23.575C68.827,23.407 68.757,23.246 68.664,23.1L68.665,23.1ZM78.835,25.493C78.647,25.287 78.381,25.081 77.96,24.827C77.9,24.793 77.828,24.748 77.763,24.709C77.413,24.499 76.991,24.277 76.499,24.009C75.743,23.596 74.984,23.189 74.221,22.789L72.871,22.073C72.801,22.053 72.73,22.003 72.664,21.971C72.405,21.838 72.129,21.74 71.844,21.678C71.746,21.659 71.646,21.649 71.546,21.648C71.481,21.646 71.417,21.65 71.353,21.659C70.8,21.744 70.362,22.177 70.271,22.729C70.251,22.901 70.257,23.075 70.29,23.244C70.356,23.604 70.517,23.959 70.683,24.27L71.404,25.621C71.805,26.383 72.212,27.141 72.628,27.896C72.897,28.388 73.12,28.81 73.329,29.159C73.369,29.225 73.414,29.296 73.449,29.356C73.703,29.776 73.908,30.041 74.115,30.23C74.25,30.36 74.411,30.459 74.588,30.52C74.773,30.581 74.97,30.603 75.164,30.584C75.263,30.572 75.361,30.555 75.458,30.532C75.554,30.507 75.648,30.476 75.741,30.441C75.841,30.403 75.938,30.358 76.031,30.306C76.579,29.999 77.084,29.62 77.533,29.181C78.072,28.651 78.548,28.072 78.918,27.411C78.97,27.317 79.015,27.219 79.052,27.119C79.087,27.027 79.117,26.933 79.142,26.837C79.164,26.739 79.181,26.641 79.192,26.542C79.211,26.348 79.188,26.151 79.126,25.966C79.065,25.789 78.966,25.628 78.836,25.493L78.835,25.493Z" style="fill:white;fill-rule:nonzero;"/>
        <path d="M32.352,12.352C32.352,11.239 33.26,10.329 34.354,10.329C35.434,10.329 36.309,11.239 36.356,12.368L36.356,28.158C36.356,29.272 35.449,30.181 34.354,30.181C34.354,30.181 34.354,30.181 34.354,30.181C33.256,30.181 32.352,29.277 32.352,28.179C32.352,28.172 32.352,28.165 32.352,28.158L32.352,12.352ZM30.492,22.106C30.476,22.419 30.398,22.999 29.992,23.423C29.553,23.878 28.959,23.987 28.615,23.987C27.184,23.995 25.753,23.999 24.322,24.003C22.892,24.007 21.46,24.011 20.029,24.019C20.155,24.411 20.405,25.007 20.968,25.555C21.312,25.885 21.64,26.073 21.781,26.151C21.953,26.261 22.547,26.575 23.282,26.575C24.064,26.575 24.752,26.324 25.425,25.979L25.481,25.949C25.948,25.708 26.431,25.458 26.941,25.367C27.442,25.289 27.974,25.383 28.365,25.727C28.834,26.136 29.022,26.732 28.85,27.343C28.646,28.033 28.068,28.629 27.458,28.99C27.114,29.193 26.738,29.366 26.363,29.507C25.395,29.85 24.371,30.009 23.345,29.977C23.095,29.977 22.829,29.977 22.563,29.947C22.284,29.911 22.007,29.858 21.734,29.789C21.302,29.695 20.883,29.554 20.483,29.366C20.083,29.189 19.7,28.973 19.341,28.723C18.983,28.465 18.648,28.177 18.341,27.86C18.035,27.54 17.758,27.194 17.511,26.826C16.667,25.54 16.276,23.956 16.354,22.419C16.417,20.914 16.917,19.409 17.824,18.185C17.92,18.042 18.027,17.906 18.144,17.778C18.19,17.725 18.235,17.673 18.278,17.621C19.398,16.251 20.895,15.818 21.512,15.639L21.546,15.629C22.798,15.273 24.126,15.273 25.378,15.629C25.675,15.708 27.348,16.225 28.646,17.621C28.709,17.684 28.881,17.887 29.1,18.185C29.655,18.941 30.063,19.795 30.302,20.702L30.304,20.71C30.398,21.055 30.492,21.525 30.492,22.106ZM21.312,19.518C20.694,20.02 20.264,20.717 20.092,21.494L26.91,21.494C26.726,20.718 26.292,20.023 25.675,19.518C25.053,19.019 24.282,18.743 23.485,18.734C23.188,18.734 22.219,18.781 21.312,19.518ZM47.24,15.363C45.458,15.363 43.831,16.163 42.674,17.464L42.674,17.417C42.644,16.344 41.754,15.477 40.68,15.477C39.586,15.477 38.685,16.378 38.685,17.472C38.685,17.49 38.685,17.509 38.686,17.527L38.686,32.597C38.686,33.71 39.578,34.603 40.688,34.603C41.798,34.603 42.69,33.71 42.69,32.596L42.69,27.892C43.847,29.178 45.458,29.993 47.256,29.993C50.837,29.993 53.746,26.747 53.746,22.702C53.73,18.656 50.821,15.362 47.24,15.362L47.24,15.363ZM46.364,26.716C44.332,26.716 42.674,24.944 42.674,22.733C42.674,20.506 44.316,18.734 46.364,18.734C48.398,18.734 50.055,20.506 50.055,22.733C50.04,24.943 48.398,26.716 46.365,26.716L46.364,26.716ZM13.352,23.752L12.695,25.195C12.398,25.822 12.101,26.465 11.819,27.108C11.729,27.305 11.639,27.506 11.547,27.711C10.297,30.491 8.814,33.792 5.58,34.494C4.016,34.839 1.654,34.368 0.779,32.894C-0.097,31.404 1.201,29.695 2.874,30.087C3.138,30.147 3.398,30.276 3.659,30.406C4.095,30.623 4.538,30.844 5.017,30.746C5.47,30.668 5.752,30.338 6.111,29.915C6.496,29.466 6.774,28.935 6.924,28.362C6.916,28.344 6.908,28.326 6.901,28.307C6.894,28.289 6.886,28.271 6.878,28.253C6.47,27.493 6.115,26.814 5.818,26.247C5.624,25.877 5.456,25.555 5.314,25.289L4.631,23.995C4.131,23.047 4.049,22.891 3.828,22.482C3.342,21.564 2.831,20.659 2.296,19.769C1.716,18.797 1.123,17.715 1.607,16.57C1.983,15.655 3.01,15.174 3.953,15.472C4.96,15.778 5.405,16.736 5.823,17.632C5.898,17.793 5.973,17.953 6.049,18.107C6.721,19.44 7.378,20.773 8.035,22.105C8.093,22.238 8.181,22.419 8.288,22.638C8.384,22.834 8.495,23.061 8.613,23.313C8.675,23.443 8.733,23.565 8.787,23.675C8.855,23.815 8.914,23.937 8.957,24.035C9.262,23.274 9.571,22.517 9.88,21.761C10.189,21.004 10.498,20.247 10.803,19.487C10.811,19.444 10.884,19.282 10.993,19.037C11.157,18.675 11.315,18.311 11.467,17.944C11.873,16.955 12.361,15.766 13.446,15.441C14.233,15.214 15.082,15.51 15.556,16.178C15.792,16.508 15.886,16.884 15.901,17.26C15.914,18.092 15.511,18.985 15.166,19.752C15.082,19.939 15.002,20.118 14.931,20.287L14.89,20.379C14.794,20.593 14.535,21.177 14.087,22.137C13.925,22.481 13.77,22.826 13.613,23.174C13.527,23.365 13.441,23.558 13.352,23.752Z" style="fill:white;"/>
    </g>
</svg>
